<svg xmlns="http://www.w3.org/2000/svg" xmlns:xlink="http://www.w3.org/1999/xlink" width="720" height="900" viewBox="0 0 720 900">
    <defs>
        <path id="a" d="M0 0h720v900H0z"/>
        <linearGradient id="d" x1="82%" x2="18%" y1="56.958%" y2="0%">
            <stop offset="0%" stop-color="#002A8E" stop-opacity="0"/>
            <stop offset="100%" stop-color="#042B5B"/>
        </linearGradient>
        <path id="c" d="M0 0h720v900H0z"/>
        <linearGradient id="f" x1="0%" x2="0%" y1=".422%" y2="100%">
            <stop offset=".084%" stop-color="#042B5B" stop-opacity="0"/>
            <stop offset="100%" stop-color="#042B5B"/>
        </linearGradient>
        <path id="e" d="M0 180h720v720H0z"/>
        <linearGradient id="h" x1="50%" x2="50%" y1="0%" y2="100%">
            <stop offset="0%" stop-color="#0034A6" stop-opacity="0"/>
            <stop offset="100%" stop-color="#0034A6" stop-opacity=".5"/>
        </linearGradient>
        <linearGradient id="i" x1="0%" y1="100%" y2="100%">
            <stop offset="0%" stop-color="#0034A6" stop-opacity="0"/>
            <stop offset="100%" stop-color="#0034A6" stop-opacity=".25"/>
        </linearGradient>
        <linearGradient id="k" x1="0%" x2="0%" y1="100%" y2="0%">
            <stop offset="0%" stop-color="#FFF" stop-opacity="0"/>
            <stop offset="100%" stop-color="#FFF"/>
        </linearGradient>
        <path id="j" d="M0 0h720v494H0z"/>
    </defs>
    <g fill="none" fill-rule="evenodd">
        <mask id="b" fill="#fff">
            <use xlink:href="#a"/>
        </mask>
        <use fill="#002A8E" xlink:href="#a"/>
        <g stroke="#0031FF" stroke-width="9" mask="url(#b)">
            <path d="M993.834-4L257 1106.643M973.834-4L237 1106.643M953.834-4L217 1106.643M933.834-4L197 1106.643M913.834-4L177 1106.643M893.834-4L157 1106.643M873.834-4L137 1106.643M853.834-4L117 1106.643M833.834-4L97 1106.643M813.834-4L77 1106.643M793.834-4L57 1106.643M773.834-4L37 1106.643M753.834-4L17 1106.643M733.834-4L-3 1106.643M713.834-4L-23 1106.643M693.834-4L-43 1106.643M673.834-4L-63 1106.643M653.834-4L-83 1106.643M633.834-4L-103 1106.643M613.834-4L-123 1106.643M593.834-4L-143 1106.643M573.834-4L-163 1106.643M553.834-4L-183 1106.643M533.834-4L-203 1106.643M513.834-4L-223 1106.643M493.834-4L-243 1106.643M473.834-4L-263 1106.643M453.834-4L-283 1106.643M433.834-4L-303 1106.643M413.834-4L-323 1106.643M393.834-4L-343 1106.643M373.834-4L-363 1106.643M353.834-4L-383 1106.643M213.834-4L-523 1106.643M233.834-4L-503 1106.643M253.834-4L-483 1106.643M273.834-4L-463 1106.643M293.834-4L-443 1106.643M313.834-4L-423 1106.643M333.834-4L-403 1106.643M193.834-4L-543 1106.643M173.834-4L-563 1106.643M153.834-4L-583 1106.643M133.834-4L-603 1106.643M113.834-4L-623 1106.643M93.834-4L-643 1106.643M73.834-4L-663 1106.643M13.834-4L-723 1106.643M33.834-4L-703 1106.643M53.834-4L-683 1106.643"/>
        </g>
        <use fill="url(#d)" fill-opacity=".25" xlink:href="#c"/>
        <mask id="g" fill="#fff">
            <use xlink:href="#e"/>
        </mask>
        <use fill="url(#f)" xlink:href="#e"/>
        <path fill="#0034A6" d="M0 808.646l720-406.521V900H0z" mask="url(#g)"/>
        <g stroke="#0043FF" stroke-width="9" mask="url(#g)">
            <path d="M1177.97 627.226L17.225 1282.301M1177.97 607.226L17.224 1262.301M1160.15 598.146L-.596 1253.221M1142.33 589.066L-18.417 1244.141M1124.51 579.987L-36.237 1235.06M1106.69 570.907L-54.057 1225.98M1088.869 561.827L-71.876 1216.902M1071.049 552.747L-89.696 1207.822M1053.229 543.667l-1160.746 655.075M928.488 480.109l-1160.745 655.074M946.308 489.189l-1160.745 655.074M964.128 498.268l-1160.745 655.075M981.948 507.348l-1160.745 655.075M999.768 516.428l-1160.745 655.075M1017.588 525.508l-1160.745 655.074M1035.409 534.588l-1160.746 655.074M910.668 471.029l-1160.746 655.074M892.848 461.95l-1160.746 655.074M875.027 452.87l-1160.745 655.074M857.207 443.79l-1160.745 655.074M839.387 434.71l-1160.745 655.074M821.567 425.63l-1160.745 655.074M803.747 416.55l-1160.745 655.075M750.287 389.31L-410.46 1044.386M768.107 398.39L-392.64 1053.465M785.927 407.47l-1160.745 655.075"/>
        </g>
        <path fill="url(#h)" d="M0 808.646l720-406.521V900H0z" mask="url(#g)"/>
        <path fill="url(#i)" d="M0 808.646l720-406.521V900H0z" mask="url(#g)"/>
        <use fill="url(#k)" fill-opacity=".25" opacity=".5" style="mix-blend-mode:overlay" xlink:href="#j"/>
    </g>
</svg>
